<!-- SVG Sprite
Taken from https://fontawesome.com/ -->
        <svg version="2.0" xmlns="http://www.w3.org/2000/svg">
            <symbol id="github" viewBox="0 0 448 512">
                <path d="M400 32H48C21.5 32 0 53.5 0 80v352c0 26.5 21.5 48 48 48h352c26.5 0 48-21.5 48-48V80c0-26.5-21.5-48-48-48zM277.3 415.7c-8.4 1.5-11.5-3.7-11.5-8 0-5.4.2-33 .2-55.3 0-15.6-5.2-25.5-11.3-30.7 37-4.1 76-9.2 76-73.1 0-18.2-6.5-27.3-17.1-39 1.7-4.3 7.4-22-1.7-45-13.9-4.3-45.7 17.9-45.7 17.9-13.2-3.7-27.5-5.6-41.6-5.6-14.1 0-28.4 1.9-41.6 5.6 0 0-31.8-22.2-45.7-17.9-9.1 22.9-3.5 40.6-1.7 45-10.6 11.7-15.6 20.8-15.6 39 0 63.6 37.3 69 74.3 73.1-4.8 4.3-9.1 11.7-10.6 22.3-9.5 4.3-33.8 11.7-48.3-13.9-9.1-15.8-25.5-17.1-25.5-17.1-16.2-.2-1.1 10.2-1.1 10.2 10.8 5 18.4 24.2 18.4 24.2 9.7 29.7 56.1 19.7 56.1 19.7 0 13.9.2 36.5.2 40.6 0 4.3-3 9.5-11.5 8-66-22.1-112.2-84.9-112.2-158.3 0-91.8 70.2-161.5 162-161.5S388 165.6 388 257.4c.1 73.4-44.7 136.3-110.7 158.3zm-98.1-61.1c-1.9.4-3.7-.4-3.9-1.7-.2-1.5 1.1-2.8 3-3.2 1.9-.2 3.7.6 3.9 1.9.3 1.3-1 2.6-3 3zm-9.5-.9c0 1.3-1.5 2.4-3.5 2.4-2.2.2-3.7-.9-3.7-2.4 0-1.3 1.5-2.4 3.5-2.4 1.9-.2 3.7.9 3.7 2.4zm-13.7-1.1c-.4 1.3-2.4 1.9-4.1 1.3-1.9-.4-3.2-1.9-2.8-3.2.4-1.3 2.4-1.9 4.1-1.5 2 .6 3.3 2.1 2.8 3.4zm-12.3-5.4c-.9 1.1-2.8.9-4.3-.6-1.5-1.3-1.9-3.2-.9-4.1.9-1.1 2.8-.9 4.3.6 1.3 1.3 1.8 3.3.9 4.1zm-9.1-9.1c-.9.6-2.6 0-3.7-1.5s-1.1-3.2 0-3.9c1.1-.9 2.8-.2 3.7 1.3 1.1 1.5 1.1 3.3 0 4.1zm-6.5-9.7c-.9.9-2.4.4-3.5-.6-1.1-1.3-1.3-2.8-.4-3.5.9-.9 2.4-.4 3.5.6 1.1 1.3 1.3 2.8.4 3.5zm-6.7-7.4c-.4.9-1.7 1.1-2.8.4-1.3-.6-1.9-1.7-1.5-2.6.4-.6 1.5-.9 2.8-.4 1.3.7 1.9 1.8 1.5 2.6z"></path>
            </symbol>

            <symbol id="instagram" viewBox="0 0 448 512">
                <path d="M224.1 141c-63.6 0-114.9 51.3-114.9 114.9s51.3 114.9 114.9 114.9S339 319.5 339 255.9 287.7 141 224.1 141zm0 189.6c-41.1 0-74.7-33.5-74.7-74.7s33.5-74.7 74.7-74.7 74.7 33.5 74.7 74.7-33.6 74.7-74.7 74.7zm146.4-194.3c0 14.9-12 26.8-26.8 26.8-14.9 0-26.8-12-26.8-26.8s12-26.8 26.8-26.8 26.8 12 26.8 26.8zm76.1 27.2c-1.7-35.9-9.9-67.7-36.2-93.9-26.2-26.2-58-34.4-93.9-36.2-37-2.1-147.9-2.1-184.9 0-35.8 1.7-67.6 9.9-93.9 36.1s-34.4 58-36.2 93.9c-2.1 37-2.1 147.9 0 184.9 1.7 35.9 9.9 67.7 36.2 93.9s58 34.4 93.9 36.2c37 2.1 147.9 2.1 184.9 0 35.9-1.7 67.7-9.9 93.9-36.2 26.2-26.2 34.4-58 36.2-93.9 2.1-37 2.1-147.8 0-184.8zM398.8 388c-7.8 19.6-22.9 34.7-42.6 42.6-29.5 11.7-99.5 9-132.1 9s-102.7 2.6-132.1-9c-19.6-7.8-34.7-22.9-42.6-42.6-11.7-29.5-9-99.5-9-132.1s-2.6-102.7 9-132.1c7.8-19.6 22.9-34.7 42.6-42.6 29.5-11.7 99.5-9 132.1-9s102.7-2.6 132.1 9c19.6 7.8 34.7 22.9 42.6 42.6 11.7 29.5 9 99.5 9 132.1s2.7 102.7-9 132.1z"></path>
            </symbol>

            <symbol id="vk" viewBox="0 0 576 512">
                <path d="M545 117.7c3.7-12.5 0-21.7-17.8-21.7h-58.9c-15 0-21.9 7.9-25.6 16.7 0 0-30 73.1-72.4 120.5-13.7 13.7-20 18.1-27.5 18.1-3.7 0-9.4-4.4-9.4-16.9V117.7c0-15-4.2-21.7-16.6-21.7h-92.6c-9.4 0-15 7-15 13.5 0 14.2 21.2 17.5 23.4 57.5v86.8c0 19-3.4 22.5-10.9 22.5-20 0-68.6-73.4-97.4-157.4-5.8-16.3-11.5-22.9-26.6-22.9H38.8c-16.8 0-20.2 7.9-20.2 16.7 0 15.6 20 93.1 93.1 195.5C160.4 378.1 229 416 291.4 416c37.5 0 42.1-8.4 42.1-22.9 0-66.8-3.4-73.1 15.4-73.1 8.7 0 23.7 4.4 58.7 38.1 40 40 46.6 57.9 69 57.9h58.9c16.8 0 25.3-8.4 20.4-25-11.2-34.9-86.9-106.7-90.3-111.5-8.7-11.2-6.2-16.2 0-26.2.1-.1 72-101.3 79.4-135.6z"></path>
            </symbol>

            <symbol id="mail" viewBox="0 0 448 512">
                <path d="M400 32H48C21.49 32 0 53.49 0 80v352c0 26.51 21.49 48 48 48h352c26.51 0 48-21.49 48-48V80c0-26.51-21.49-48-48-48zM178.117 262.104C87.429 196.287 88.353 196.121 64 177.167V152c0-13.255 10.745-24 24-24h272c13.255 0 24 10.745 24 24v25.167c-24.371 18.969-23.434 19.124-114.117 84.938-10.5 7.655-31.392 26.12-45.883 25.894-14.503.218-35.367-18.227-45.883-25.895zM384 217.775V360c0 13.255-10.745 24-24 24H88c-13.255 0-24-10.745-24-24V217.775c13.958 10.794 33.329 25.236 95.303 70.214 14.162 10.341 37.975 32.145 64.694 32.01 26.887.134 51.037-22.041 64.72-32.025 61.958-44.965 81.325-59.406 95.283-70.199z"></path>
            </symbol>

            <symbol id="theme_sun" viewBox="0 0 512 512">
                <path d="M494.2 221.9l-59.8-40.5 13.7-71c2.6-13.2-1.6-26.8-11.1-36.4-9.6-9.5-23.2-13.7-36.2-11.1l-70.9 13.7-40.4-59.9c-15.1-22.3-51.9-22.3-67 0l-40.4 59.9-70.8-13.7C98 60.4 84.5 64.5 75 74.1c-9.5 9.6-13.7 23.1-11.1 36.3l13.7 71-59.8 40.5C6.6 229.5 0 242 0 255.5s6.7 26 17.8 33.5l59.8 40.5-13.7 71c-2.6 13.2 1.6 26.8 11.1 36.3 9.5 9.5 22.9 13.7 36.3 11.1l70.8-13.7 40.4 59.9C230 505.3 242.6 512 256 512s26-6.7 33.5-17.8l40.4-59.9 70.9 13.7c13.4 2.7 26.8-1.6 36.3-11.1 9.5-9.5 13.6-23.1 11.1-36.3l-13.7-71 59.8-40.5c11.1-7.5 17.8-20.1 17.8-33.5-.1-13.6-6.7-26.1-17.9-33.7zm-112.9 85.6l17.6 91.2-91-17.6L256 458l-51.9-77-90.9 17.6 17.6-91.2-76.8-52 76.8-52-17.6-91.2 91 17.6L256 53l51.9 76.9 91-17.6-17.6 91.1 76.8 52-76.8 52.1zM256 152c-57.3 0-104 46.7-104 104s46.7 104 104 104 104-46.7 104-104-46.7-104-104-104zm0 160c-30.9 0-56-25.1-56-56s25.1-56 56-56 56 25.1 56 56-25.1 56-56 56z"></path>
            </symbol>

            <symbol id="theme_moon" viewBox="0 0 512 512">
                <path d="M283.211 512c78.962 0 151.079-35.925 198.857-94.792 7.068-8.708-.639-21.43-11.562-19.35-124.203 23.654-238.262-71.576-238.262-196.954 0-72.222 38.662-138.635 101.498-174.394 9.686-5.512 7.25-20.197-3.756-22.23A258.156 258.156 0 0 0 283.211 0c-141.309 0-256 114.511-256 256 0 141.309 114.511 256 256 256z"></path>
            </symbol>

            <symbol id="html_5" viewBox="0 0 384 512">
                <path d="M0 32l34.9 395.8L191.5 480l157.6-52.2L384 32H0zm308.2 127.9H124.4l4.1 49.4h175.6l-13.6 148.4-97.9 27v.3h-1.1l-98.7-27.3-6-75.8h47.7L138 320l53.5 14.5 53.7-14.5 6-62.2H84.3L71.5 112.2h241.1l-4.4 47.7z"></path>
            </symbol>

            <symbol id="css_3" viewBox="0 0 384 512">
                <path d="M0 32l34.9 395.8L192 480l157.1-52.2L384 32H0zm313.1 80l-4.8 47.3L193 208.6l-.3.1h111.5l-12.8 146.6-98.2 28.7-98.8-29.2-6.4-73.9h48.9l3.2 38.3 52.6 13.3 54.7-15.4 3.7-61.6-166.3-.5v-.1l-.2.1-3.6-46.3L193.1 162l6.5-2.7H76.7L70.9 112h242.2z"></path>
            </symbol>

            <symbol id="js" viewBox="0 0 448 512">
                <path d="M0 32v448h448V32H0zm243.8 349.4c0 43.6-25.6 63.5-62.9 63.5-33.7 0-53.2-17.4-63.2-38.5l34.3-20.7c6.6 11.7 12.6 21.6 27.1 21.6 13.8 0 22.6-5.4 22.6-26.5V237.7h42.1v143.7zm99.6 63.5c-39.1 0-64.4-18.6-76.7-43l34.3-19.8c9 14.7 20.8 25.6 41.5 25.6 17.4 0 28.6-8.7 28.6-20.8 0-14.4-11.4-19.5-30.7-28l-10.5-4.5c-30.4-12.9-50.5-29.2-50.5-63.5 0-31.6 24.1-55.6 61.6-55.6 26.8 0 46 9.3 59.8 33.7L368 290c-7.2-12.9-15-18-27.1-18-12.3 0-20.1 7.8-20.1 18 0 12.6 7.8 17.7 25.9 25.6l10.5 4.5c35.8 15.3 55.9 31 55.9 66.2 0 37.8-29.8 58.6-69.7 58.6z"></path>
            </symbol>

            <symbol id="react" viewBox="0 0 512 512">
                <path d="M418.2 177.2c-5.4-1.8-10.8-3.5-16.2-5.1.9-3.7 1.7-7.4 2.5-11.1 12.3-59.6 4.2-107.5-23.1-123.3-26.3-15.1-69.2.6-112.6 38.4-4.3 3.7-8.5 7.6-12.5 11.5-2.7-2.6-5.5-5.2-8.3-7.7-45.5-40.4-91.1-57.4-118.4-41.5-26.2 15.2-34 60.3-23 116.7 1.1 5.6 2.3 11.1 3.7 16.7-6.4 1.8-12.7 3.8-18.6 5.9C38.3 196.2 0 225.4 0 255.6c0 31.2 40.8 62.5 96.3 81.5 4.5 1.5 9 3 13.6 4.3-1.5 6-2.8 11.9-4 18-10.5 55.5-2.3 99.5 23.9 114.6 27 15.6 72.4-.4 116.6-39.1 3.5-3.1 7-6.3 10.5-9.7 4.4 4.3 9 8.4 13.6 12.4 42.8 36.8 85.1 51.7 111.2 36.6 27-15.6 35.8-62.9 24.4-120.5-.9-4.4-1.9-8.9-3-13.5 3.2-.9 6.3-1.9 9.4-2.9 57.7-19.1 99.5-50 99.5-81.7 0-30.3-39.4-59.7-93.8-78.4zM282.9 92.3c37.2-32.4 71.9-45.1 87.7-36 16.9 9.7 23.4 48.9 12.8 100.4-.7 3.4-1.4 6.7-2.3 10-22.2-5-44.7-8.6-67.3-10.6-13-18.6-27.2-36.4-42.6-53.1 3.9-3.7 7.7-7.2 11.7-10.7zM167.2 307.5c5.1 8.7 10.3 17.4 15.8 25.9-15.6-1.7-31.1-4.2-46.4-7.5 4.4-14.4 9.9-29.3 16.3-44.5 4.6 8.8 9.3 17.5 14.3 26.1zm-30.3-120.3c14.4-3.2 29.7-5.8 45.6-7.8-5.3 8.3-10.5 16.8-15.4 25.4-4.9 8.5-9.7 17.2-14.2 26-6.3-14.9-11.6-29.5-16-43.6zm27.4 68.9c6.6-13.8 13.8-27.3 21.4-40.6s15.8-26.2 24.4-38.9c15-1.1 30.3-1.7 45.9-1.7s31 .6 45.9 1.7c8.5 12.6 16.6 25.5 24.3 38.7s14.9 26.7 21.7 40.4c-6.7 13.8-13.9 27.4-21.6 40.8-7.6 13.3-15.7 26.2-24.2 39-14.9 1.1-30.4 1.6-46.1 1.6s-30.9-.5-45.6-1.4c-8.7-12.7-16.9-25.7-24.6-39s-14.8-26.8-21.5-40.6zm180.6 51.2c5.1-8.8 9.9-17.7 14.6-26.7 6.4 14.5 12 29.2 16.9 44.3-15.5 3.5-31.2 6.2-47 8 5.4-8.4 10.5-17 15.5-25.6zm14.4-76.5c-4.7-8.8-9.5-17.6-14.5-26.2-4.9-8.5-10-16.9-15.3-25.2 16.1 2 31.5 4.7 45.9 8-4.6 14.8-10 29.2-16.1 43.4zM256.2 118.3c10.5 11.4 20.4 23.4 29.6 35.8-19.8-.9-39.7-.9-59.5 0 9.8-12.9 19.9-24.9 29.9-35.8zM140.2 57c16.8-9.8 54.1 4.2 93.4 39 2.5 2.2 5 4.6 7.6 7-15.5 16.7-29.8 34.5-42.9 53.1-22.6 2-45 5.5-67.2 10.4-1.3-5.1-2.4-10.3-3.5-15.5-9.4-48.4-3.2-84.9 12.6-94zm-24.5 263.6c-4.2-1.2-8.3-2.5-12.4-3.9-21.3-6.7-45.5-17.3-63-31.2-10.1-7-16.9-17.8-18.8-29.9 0-18.3 31.6-41.7 77.2-57.6 5.7-2 11.5-3.8 17.3-5.5 6.8 21.7 15 43 24.5 63.6-9.6 20.9-17.9 42.5-24.8 64.5zm116.6 98c-16.5 15.1-35.6 27.1-56.4 35.3-11.1 5.3-23.9 5.8-35.3 1.3-15.9-9.2-22.5-44.5-13.5-92 1.1-5.6 2.3-11.2 3.7-16.7 22.4 4.8 45 8.1 67.9 9.8 13.2 18.7 27.7 36.6 43.2 53.4-3.2 3.1-6.4 6.1-9.6 8.9zm24.5-24.3c-10.2-11-20.4-23.2-30.3-36.3 9.6.4 19.5.6 29.5.6 10.3 0 20.4-.2 30.4-.7-9.2 12.7-19.1 24.8-29.6 36.4zm130.7 30c-.9 12.2-6.9 23.6-16.5 31.3-15.9 9.2-49.8-2.8-86.4-34.2-4.2-3.6-8.4-7.5-12.7-11.5 15.3-16.9 29.4-34.8 42.2-53.6 22.9-1.9 45.7-5.4 68.2-10.5 1 4.1 1.9 8.2 2.7 12.2 4.9 21.6 5.7 44.1 2.5 66.3zm18.2-107.5c-2.8.9-5.6 1.8-8.5 2.6-7-21.8-15.6-43.1-25.5-63.8 9.6-20.4 17.7-41.4 24.5-62.9 5.2 1.5 10.2 3.1 15 4.7 46.6 16 79.3 39.8 79.3 58 0 19.6-34.9 44.9-84.8 61.4zm-149.7-15c25.3 0 45.8-20.5 45.8-45.8s-20.5-45.8-45.8-45.8c-25.3 0-45.8 20.5-45.8 45.8s20.5 45.8 45.8 45.8z"></path>
            </symbol>
        </svg>